<svg width="32" height="32" viewBox="0 0 32 32" fill="none" xmlns="http://www.w3.org/2000/svg">
<path d="M6.47238 8.46663C7.04307 9.10934 7.7495 9.4307 8.59168 9.4307C8.97399 9.4307 9.28011 9.35451 9.51004 9.20215C9.78153 9.01654 9.91728 8.7589 9.91728 8.42923C9.91728 8.13003 9.79954 7.88624 9.56406 7.69786C9.40893 7.5732 9.03493 7.39451 8.44208 7.1618L8.28417 7.09947L8.0016 6.98727C7.98221 6.97896 7.94758 6.96511 7.89771 6.94572C7.28824 6.71578 6.89347 6.52601 6.7134 6.37642C6.6857 6.35148 6.65107 6.31686 6.60951 6.27253C6.31309 5.95394 6.16488 5.57025 6.16488 5.12146C6.16488 4.54246 6.37265 4.07566 6.7882 3.72106C7.22314 3.34984 7.81045 3.16423 8.55013 3.16423C9.06541 3.16423 9.52528 3.24041 9.92975 3.39278C10.2511 3.51744 10.5711 3.7086 10.8897 3.96624L10.3162 4.76409C9.82586 4.29868 9.23994 4.06597 8.55844 4.06597C8.11241 4.06597 7.78829 4.16986 7.58605 4.37763C7.41429 4.55493 7.32841 4.76963 7.32841 5.02173C7.32841 5.30984 7.45308 5.53978 7.70241 5.71154C7.86032 5.82235 8.19552 5.96918 8.70803 6.15202L9.04047 6.27253C9.77184 6.53571 10.2733 6.79335 10.5448 7.04545C10.9215 7.39728 11.1099 7.83915 11.1099 8.37105C11.1099 9.03039 10.8509 9.54428 10.3328 9.91273C9.9062 10.2147 9.32443 10.3657 8.58752 10.3657C7.44061 10.3657 6.52225 9.97645 5.83244 9.19799L6.47238 8.46663ZM14.48 3.28474H15.5854L18.2781 10.2119H17.0855L16.3791 8.32534H13.6905L12.984 10.2119H11.7914L14.48 3.28474ZM16.0799 7.43191L15.4358 5.6783C15.2529 5.18518 15.1241 4.75024 15.0493 4.37347H15.0161C14.944 4.75024 14.8166 5.18518 14.6338 5.6783L13.9855 7.43191H16.0799ZM24.1747 10.2452L23.9794 9.47225C23.8049 9.71881 23.5819 9.91689 23.3104 10.0665C22.942 10.266 22.5361 10.3657 22.0928 10.3657C21.1786 10.3657 20.4057 10.054 19.7741 9.4307C19.112 8.77413 18.7809 7.89455 18.7809 6.79197C18.7809 5.82512 19.0469 5.01342 19.5788 4.35685C20.227 3.55623 21.0845 3.15592 22.151 3.15592C22.7051 3.15592 23.2037 3.24734 23.647 3.43018C23.985 3.5687 24.3368 3.78617 24.7025 4.08259L24.0833 4.85135C23.7537 4.57709 23.4614 4.38594 23.2065 4.2779C22.9101 4.15323 22.5707 4.0909 22.1884 4.0909C21.5402 4.0909 21.0083 4.33884 20.5927 4.83473C20.1855 5.31954 19.9819 5.97749 19.9819 6.80859C19.9819 7.58982 20.1702 8.2173 20.547 8.69102C20.9349 9.1786 21.4654 9.42239 22.1386 9.42239C22.6095 9.42239 23.0195 9.31019 23.3686 9.08579C23.6456 8.90849 23.8354 8.69656 23.9379 8.45V7.58982H22.0928V6.71301H24.9684V10.2452H24.1747ZM6.09423 11.7237H7.36997V12.4052C7.36997 13.1311 7.14003 13.7835 6.68016 14.3625H6.09423C6.41836 13.9414 6.60813 13.4871 6.66354 12.9995H6.09423V11.7237ZM21.0457 12.2847H22.151L24.8438 19.2119H23.6512L22.9447 17.3253H20.2561L19.5497 19.2119H18.3571L21.0457 12.2847ZM22.6455 16.4319L22.0014 14.6783C21.8186 14.1852 21.6898 13.7502 21.615 13.3735H21.5817C21.5097 13.7502 21.3823 14.1852 21.1994 14.6783L20.5512 16.4319H22.6455ZM8.2634 21.2847H9.36876L12.0615 28.2119H10.8689L10.1625 26.3253H7.47386L6.76742 28.2119H5.5748L8.2634 21.2847ZM9.86326 25.4319L9.21916 23.6783C9.03632 23.1852 8.9075 22.7502 8.8327 22.3735H8.79945C8.72743 22.7502 8.59999 23.1852 8.41715 23.6783L7.76889 25.4319H9.86326ZM12.9134 21.318H15.336C16.0702 21.318 16.6464 21.4454 17.0647 21.7003C17.6437 22.0521 17.9332 22.5549 17.9332 23.2087C17.9332 23.7905 17.706 24.2379 17.2517 24.5509C16.9636 24.7504 16.573 24.8875 16.0799 24.9623V24.9873C16.4982 25.1175 16.8639 25.4291 17.1769 25.9223C17.5038 26.4375 17.918 27.2008 18.4194 28.2119H17.0896C16.5633 26.9985 16.1602 26.2284 15.8804 25.9015C15.559 25.5247 15.1255 25.3363 14.5797 25.3363H14.0187V28.2119H12.9134V21.318ZM14.0187 22.1865V24.4845H15.0244C15.5175 24.4845 15.9109 24.3972 16.2045 24.2227C16.573 24.0038 16.7572 23.6866 16.7572 23.2711C16.7572 22.548 16.2073 22.1865 15.1075 22.1865H14.0187ZM18.6646 21.318H24.503V22.2779H22.1344V28.2119H21.029V22.2779H18.6646V21.318Z" fill="url(#paint0_linear_4210_2197)"/>
<defs>
<linearGradient id="paint0_linear_4210_2197" x1="16" y1="3" x2="16" y2="29" gradientUnits="userSpaceOnUse">
<stop stop-color="#8F8F8F" stop-opacity="0.7"/>
<stop offset="0.559276" stop-color="#292929" stop-opacity="0.8"/>
<stop offset="0.935" stop-color="#292929"/>
</linearGradient>
</defs>
</svg>
