<svg width="89" height="88" viewBox="0 0 89 88" fill="none" xmlns="http://www.w3.org/2000/svg">
<path d="M18.7422 24.6758C20.3516 26.4883 22.3438 27.3945 24.7188 27.3945C25.7969 27.3945 26.6602 27.1797 27.3086 26.75C28.0742 26.2266 28.457 25.5 28.457 24.5703C28.457 23.7266 28.125 23.0391 27.4609 22.5078C27.0234 22.1562 25.9688 21.6523 24.2969 20.9961L23.8516 20.8203L23.0547 20.5039C23 20.4805 22.9023 20.4414 22.7617 20.3867C21.043 19.7383 19.9297 19.2031 19.4219 18.7812C19.3438 18.7109 19.2461 18.6133 19.1289 18.4883C18.293 17.5898 17.875 16.5078 17.875 15.2422C17.875 13.6094 18.4609 12.293 19.6328 11.293C20.8594 10.2461 22.5156 9.72266 24.6016 9.72266C26.0547 9.72266 27.3516 9.9375 28.4922 10.3672C29.3984 10.7188 30.3008 11.2578 31.1992 11.9844L29.582 14.2344C28.1992 12.9219 26.5469 12.2656 24.625 12.2656C23.3672 12.2656 22.4531 12.5586 21.8828 13.1445C21.3984 13.6445 21.1562 14.25 21.1562 14.9609C21.1562 15.7734 21.5078 16.4219 22.2109 16.9062C22.6562 17.2188 23.6016 17.6328 25.0469 18.1484L25.9844 18.4883C28.0469 19.2305 29.4609 19.957 30.2266 20.668C31.2891 21.6602 31.8203 22.9062 31.8203 24.4062C31.8203 26.2656 31.0898 27.7148 29.6289 28.7539C28.4258 29.6055 26.7852 30.0312 24.707 30.0312C21.4727 30.0312 18.8828 28.9336 16.9375 26.7383L18.7422 24.6758ZM41.3242 10.0625H44.4414L52.0352 29.5977H48.6719L46.6797 24.2773H39.0977L37.1055 29.5977H33.7422L41.3242 10.0625ZM45.8359 21.7578L44.0195 16.8125C43.5039 15.4219 43.1406 14.1953 42.9297 13.1328H42.8359C42.6328 14.1953 42.2734 15.4219 41.7578 16.8125L39.9297 21.7578H45.8359ZM68.6641 29.6914L68.1133 27.5117C67.6211 28.207 66.9922 28.7656 66.2266 29.1875C65.1875 29.75 64.043 30.0312 62.793 30.0312C60.2148 30.0312 58.0352 29.1523 56.2539 27.3945C54.3867 25.543 53.4531 23.0625 53.4531 19.9531C53.4531 17.2266 54.2031 14.9375 55.7031 13.0859C57.5312 10.8281 59.9492 9.69922 62.957 9.69922C64.5195 9.69922 65.9258 9.95703 67.1758 10.4727C68.1289 10.8633 69.1211 11.4766 70.1523 12.3125L68.4062 14.4805C67.4766 13.707 66.6523 13.168 65.9336 12.8633C65.0977 12.5117 64.1406 12.3359 63.0625 12.3359C61.2344 12.3359 59.7344 13.0352 58.5625 14.4336C57.4141 15.8008 56.8398 17.6562 56.8398 20C56.8398 22.2031 57.3711 23.9727 58.4336 25.3086C59.5273 26.6836 61.0234 27.3711 62.9219 27.3711C64.25 27.3711 65.4062 27.0547 66.3906 26.4219C67.1719 25.9219 67.707 25.3242 67.9961 24.6289V22.2031H62.793V19.7305H70.9023V29.6914H68.6641ZM17.6758 32.4805H21.2734V34.4023C21.2734 36.4492 20.625 38.2891 19.3281 39.9219H17.6758C18.5898 38.7344 19.125 37.4531 19.2812 36.0781H17.6758V32.4805ZM59.8398 34.0625H62.957L70.5508 53.5977H67.1875L65.1953 48.2773H57.6133L55.6211 53.5977H52.2578L59.8398 34.0625ZM64.3516 45.7578L62.5352 40.8125C62.0195 39.4219 61.6562 38.1953 61.4453 37.1328H61.3516C61.1484 38.1953 60.7891 39.4219 60.2734 40.8125L58.4453 45.7578H64.3516ZM23.793 58.0625H26.9102L34.5039 77.5977H31.1406L29.1484 72.2773H21.5664L19.5742 77.5977H16.2109L23.793 58.0625ZM28.3047 69.7578L26.4883 64.8125C25.9727 63.4219 25.6094 62.1953 25.3984 61.1328H25.3047C25.1016 62.1953 24.7422 63.4219 24.2266 64.8125L22.3984 69.7578H28.3047ZM36.9062 58.1562H43.7383C45.8086 58.1562 47.4336 58.5156 48.6133 59.2344C50.2461 60.2266 51.0625 61.6445 51.0625 63.4883C51.0625 65.1289 50.4219 66.3906 49.1406 67.2734C48.3281 67.8359 47.2266 68.2227 45.8359 68.4336V68.5039C47.0156 68.8711 48.0469 69.75 48.9297 71.1406C49.8516 72.5938 51.0195 74.7461 52.4336 77.5977H48.6836C47.1992 74.1758 46.0625 72.0039 45.2734 71.082C44.3672 70.0195 43.1445 69.4883 41.6055 69.4883H40.0234V77.5977H36.9062V58.1562ZM40.0234 60.6055V67.0859H42.8594C44.25 67.0859 45.3594 66.8398 46.1875 66.3477C47.2266 65.7305 47.7461 64.8359 47.7461 63.6641C47.7461 61.625 46.1953 60.6055 43.0938 60.6055H40.0234ZM53.125 58.1562H69.5898V60.8633H62.9102V77.5977H59.793V60.8633H53.125V58.1562Z" fill="white"/>
</svg>
