<svg width="194" height="213" viewBox="0 0 194 213" fill="none" xmlns="http://www.w3.org/2000/svg">
<g clip-path="url(#clip0_4077_1353)">
<path fill-rule="evenodd" clip-rule="evenodd" d="M87.901 93.0833C88.2246 93.7982 88.6711 94.4787 89.1172 95.1578C91.3038 98.8829 93.7932 103.244 96.9389 106.113C101.113 109.861 104.91 110.725 108.226 109.795C112.892 108.481 116.615 103.154 118.088 96.8264C119.576 90.549 118.968 83.3502 115.637 78.3128C113.389 74.8512 109.812 72.3421 104.657 71.8327C98.8135 71.2174 94.2078 74.2356 90.7333 79.0111C89.369 80.8194 88.3248 82.8354 87.3243 85.0157C86.3256 82.7671 85.3202 80.4956 84.3065 78.1908C81.212 70.5847 78.7488 62.3785 76.9926 54.3458C74.5502 43.7522 73.7091 33.2176 74.5602 22.5942C74.5665 21.6318 73.9217 20.7048 73.0835 20.5339C72.2458 20.3645 71.4981 21.0221 71.3686 22.0176C70.4966 33.0559 71.3201 44.0184 73.8729 55.0242C75.814 63.2544 78.2189 71.7327 81.498 79.5349C82.8898 82.7578 84.2648 85.9189 85.7532 89.0094C84.0639 94.0404 83.1174 99.3804 82.8433 103.779C81.4516 133.084 102.404 166.431 120.047 187.92C120.646 188.677 121.596 188.772 122.214 188.121C122.832 187.469 122.794 186.341 122.195 185.584C105.132 164.781 84.6313 132.631 86.0091 104.259C86.1715 100.922 86.8286 96.9665 87.901 93.0833ZM89.3065 88.9625C89.9661 90.4385 90.7455 91.8716 91.6477 93.2672C93.7444 96.6565 95.8906 100.725 98.712 103.368C101.848 106.203 104.706 107.008 107.163 106.319C111.093 105.215 113.858 100.751 115 95.6461C116.251 90.4591 115.972 84.4882 113.146 80.3504C111.373 77.6745 108.628 75.8104 104.688 75.4002C99.8034 74.9126 96.0134 77.5222 93.2323 81.4355C91.5783 83.6411 90.2915 86.2318 89.3065 88.9625Z" fill="#020202"/>
<path fill-rule="evenodd" clip-rule="evenodd" d="M121.595 187.792C120.843 187.448 120.023 186.852 119.203 186.255C117.578 185.12 116.052 183.863 114.847 183.309C107.582 179.852 98.8395 175.808 91.1082 175.047C90.289 174.946 89.562 175.683 89.5627 176.672C89.5631 177.659 90.1978 178.55 91.1402 178.617C98.4733 179.371 106.797 183.326 113.885 186.613C115.107 187.233 116.964 188.744 118.599 189.916C120.049 190.892 121.43 191.611 122.638 191.683C123.324 191.777 124.355 191.192 124.66 189.371C125.029 186.807 124.181 180.188 124.138 179.537C123.692 172.944 123.448 167.103 127.07 161.894C127.534 161.159 127.362 160.027 126.783 159.343C126.08 158.693 125.048 158.784 124.585 159.52C120.494 165.447 120.424 172.082 120.981 179.585C121.103 180.04 121.633 183.99 121.605 186.841C121.559 187.161 121.643 187.476 121.595 187.792Z" fill="#020202"/>
</g>
<defs>
<clipPath id="clip0_4077_1353">
<rect width="152.826" height="178.753" fill="white" transform="translate(194 172.663) rotate(165)"/>
</clipPath>
</defs>
</svg>
