<svg width="52" height="52" viewBox="0 0 52 52" fill="none" xmlns="http://www.w3.org/2000/svg">
<path d="M17.7288 21.5001C17.727 20.246 17.9734 19.004 18.4537 17.8456C18.934 16.6871 19.6387 15.6351 20.5273 14.7502C21.4159 13.8653 22.4708 13.1649 23.6313 12.6895C24.7917 12.214 26.0347 11.9728 27.2888 11.9798C32.5249 12.0194 36.7165 16.3697 36.7165 21.6191V22.5579C36.7165 27.2916 37.7082 30.0419 38.5809 31.5493C38.6736 31.7099 38.7225 31.8919 38.7227 32.0773C38.7228 32.2627 38.6743 32.4448 38.5819 32.6055C38.4895 32.7662 38.3565 32.8998 38.1962 32.9929C38.0359 33.086 37.8539 33.1354 37.6686 33.136H16.7767C16.5914 33.1354 16.4094 33.086 16.2491 32.9929C16.0889 32.8998 15.9558 32.7662 15.8634 32.6055C15.771 32.4448 15.7225 32.2627 15.7227 32.0773C15.7228 31.8919 15.7717 31.7099 15.8644 31.5493C16.7371 30.0419 17.7288 27.2916 17.7288 22.5579V21.5001Z" stroke="white" stroke-width="2.11563" stroke-linecap="round" stroke-linejoin="round"/>
<path d="M22.9922 33.136V34.1938C22.9922 35.316 23.438 36.3922 24.2315 37.1857C25.025 37.9793 26.1012 38.4251 27.2234 38.4251C28.3456 38.4251 29.4219 37.9793 30.2154 37.1857C31.0089 36.3922 31.4547 35.316 31.4547 34.1938V33.136" stroke="white" stroke-width="2.11563" stroke-linecap="round" stroke-linejoin="round"/>
</svg>
