<svg width="25" height="24" viewBox="0 0 25 24" fill="none" xmlns="http://www.w3.org/2000/svg">
<g id="Icons/Instagram">
<path id="Vector" d="M21.4461 8.30496C21.436 7.54758 21.2942 6.79773 21.0271 6.08896C20.7954 5.49111 20.4416 4.94816 19.9883 4.49479C19.5349 4.04142 18.9919 3.68761 18.3941 3.45596C17.6944 3.19331 16.9553 3.0513 16.2081 3.03596C15.2461 2.99296 14.9411 2.98096 12.4991 2.98096C10.0571 2.98096 9.74409 2.98096 8.78909 3.03596C8.04225 3.05141 7.30344 3.19343 6.60409 3.45596C6.00615 3.68745 5.46311 4.0412 5.00973 4.49459C4.55634 4.94798 4.20258 5.49102 3.97109 6.08896C3.70792 6.78809 3.56622 7.52707 3.55209 8.27396C3.50909 9.23696 3.49609 9.54196 3.49609 11.984C3.49609 14.426 3.49609 14.738 3.55209 15.694C3.56709 16.442 3.70809 17.18 3.97109 17.881C4.20297 18.4787 4.55699 19.0215 5.01053 19.4747C5.46407 19.9279 6.00716 20.2815 6.60509 20.513C7.30253 20.7862 8.04147 20.9383 8.79009 20.963C9.75309 21.006 10.0581 21.019 12.5001 21.019C14.9421 21.019 15.2551 21.019 16.2101 20.963C16.9572 20.9482 17.6965 20.8066 18.3961 20.544C18.9938 20.312 19.5366 19.9581 19.9899 19.5048C20.4433 19.0515 20.7972 18.5086 21.0291 17.911C21.2921 17.211 21.4331 16.473 21.4481 15.724C21.4911 14.762 21.5041 14.457 21.5041 12.014C21.5021 9.57196 21.5021 9.26196 21.4461 8.30496ZM12.4931 16.602C9.93909 16.602 7.87009 14.533 7.87009 11.979C7.87009 9.42496 9.93909 7.35596 12.4931 7.35596C13.7192 7.35596 14.8951 7.84302 15.762 8.71C16.629 9.57698 17.1161 10.7529 17.1161 11.979C17.1161 13.2051 16.629 14.3809 15.762 15.2479C14.8951 16.1149 13.7192 16.602 12.4931 16.602ZM17.3001 8.26296C17.1585 8.26309 17.0183 8.2353 16.8874 8.18117C16.7566 8.12704 16.6377 8.04764 16.5375 7.94751C16.4374 7.84738 16.358 7.72849 16.3039 7.59765C16.2498 7.4668 16.222 7.32656 16.2221 7.18496C16.2221 7.04346 16.25 6.90334 16.3041 6.77262C16.3583 6.64189 16.4376 6.5231 16.5377 6.42305C16.6377 6.32299 16.7565 6.24363 16.8873 6.18948C17.018 6.13533 17.1581 6.10746 17.2996 6.10746C17.4411 6.10746 17.5812 6.13533 17.7119 6.18948C17.8427 6.24363 17.9614 6.32299 18.0615 6.42305C18.1616 6.5231 18.2409 6.64189 18.2951 6.77262C18.3492 6.90334 18.3771 7.04346 18.3771 7.18496C18.3771 7.78096 17.8951 8.26296 17.3001 8.26296Z" fill="white"/>
<path id="Vector_2" d="M12.4932 14.9821C14.1517 14.9821 15.4962 13.6376 15.4962 11.9791C15.4962 10.3206 14.1517 8.97607 12.4932 8.97607C10.8347 8.97607 9.49023 10.3206 9.49023 11.9791C9.49023 13.6376 10.8347 14.9821 12.4932 14.9821Z" fill="white"/>
</g>
</svg>
