<svg width="25" height="24" viewBox="0 0 25 24" fill="none" xmlns="http://www.w3.org/2000/svg">
<g id="Icons/Telegram">
<path id="Vector" d="M19.966 4.15009C19.966 4.15009 21.631 3.41424 21.4917 5.20117C21.4459 5.93703 21.0297 8.51276 20.7057 11.2983L19.5958 19.5506C19.5958 19.5506 19.5032 20.7595 18.6705 20.9698C17.8382 21.1796 16.5894 20.234 16.3579 20.0237C16.1728 19.8658 12.8891 17.5004 11.7329 16.3444C11.4089 16.0287 11.0386 15.3982 11.7792 14.6624L16.6352 9.40598C17.1902 8.77553 17.7452 7.30382 15.4327 9.09076L8.95705 14.0839C8.95705 14.0839 8.21692 14.6099 6.82965 14.1368L3.82284 13.0853C3.82284 13.0853 2.71285 12.2969 4.60925 11.5086C9.23476 9.0383 14.924 6.51551 19.9652 4.15009H19.966Z" fill="white"/>
</g>
</svg>
