<svg width="194" height="213" viewBox="0 0 194 213" fill="none" xmlns="http://www.w3.org/2000/svg">
<g clip-path="url(#clip0_4344_2988)">
<path fill-rule="evenodd" clip-rule="evenodd" d="M87.8424 93.0833C88.166 93.7982 88.6125 94.4787 89.0586 95.1578C91.2452 98.8829 93.7346 103.244 96.8803 106.113C101.054 109.861 104.851 110.725 108.167 109.795C112.834 108.481 116.556 103.154 118.03 96.8264C119.517 90.549 118.909 83.3502 115.579 78.3128C113.331 74.8512 109.753 72.3421 104.598 71.8327C98.755 71.2174 94.1492 74.2356 90.6747 79.0111C89.3104 80.8194 88.2662 82.8354 87.2657 85.0157C86.267 82.7671 85.2616 80.4956 84.2479 78.1908C81.1534 70.5847 78.6902 62.3785 76.934 54.3458C74.4916 43.7522 73.6505 33.2176 74.5016 22.5942C74.5079 21.6318 73.8631 20.7048 73.0249 20.5339C72.1872 20.3645 71.4395 21.0221 71.31 22.0176C70.438 33.0559 71.2615 44.0184 73.8143 55.0242C75.7554 63.2544 78.1603 71.7327 81.4394 79.5349C82.8312 82.7578 84.2062 85.9189 85.6946 89.0094C84.0053 94.0404 83.0588 99.3804 82.7847 103.779C81.393 133.084 102.345 166.431 119.988 187.92C120.587 188.677 121.538 188.772 122.156 188.121C122.774 187.469 122.735 186.341 122.136 185.584C105.073 164.781 84.5727 132.631 85.9505 104.259C86.1129 100.922 86.77 96.9665 87.8424 93.0833ZM89.2479 88.9625C89.9075 90.4385 90.6869 91.8716 91.5891 93.2672C93.6858 96.6565 95.832 100.725 98.6534 103.368C101.79 106.203 104.648 107.008 107.104 106.319C111.034 105.215 113.8 100.751 114.941 95.6461C116.192 90.4591 115.913 84.4882 113.088 80.3504C111.314 77.6745 108.569 75.8104 104.63 75.4002C99.7448 74.9126 95.9548 77.5222 93.1737 81.4355C91.5197 83.6411 90.233 86.2318 89.2479 88.9625Z" fill="white"/>
<path fill-rule="evenodd" clip-rule="evenodd" d="M121.537 187.792C120.784 187.448 119.964 186.852 119.144 186.255C117.519 185.12 115.994 183.863 114.789 183.309C107.524 179.852 98.7809 175.808 91.0496 175.047C90.2304 174.946 89.5034 175.683 89.5041 176.672C89.5045 177.659 90.1392 178.55 91.0816 178.617C98.4147 179.371 106.739 183.326 113.826 186.613C115.049 187.233 116.905 188.744 118.54 189.916C119.99 190.892 121.372 191.611 122.579 191.683C123.265 191.777 124.297 191.192 124.601 189.371C124.971 186.807 124.122 180.188 124.08 179.537C123.634 172.944 123.389 167.103 127.011 161.894C127.475 161.159 127.303 160.027 126.724 159.343C126.021 158.693 124.989 158.784 124.526 159.52C120.436 165.447 120.365 172.082 120.923 179.585C121.045 180.04 121.575 183.99 121.546 186.841C121.5 187.161 121.584 187.476 121.537 187.792Z" fill="white"/>
</g>
<defs>
<clipPath id="clip0_4344_2988">
<rect width="152.826" height="178.753" fill="white" transform="translate(193.941 172.663) rotate(165)"/>
</clipPath>
</defs>
</svg>
